<svg width="160" height="40" viewBox="0 0 160 40" fill="none" xmlns="http://www.w3.org/2000/svg">
  <path d="M10 8C6.68629 8 4 10.6863 4 14V26C4 29.3137 6.68629 32 10 32H30C33.3137 32 36 29.3137 36 26V14C36 10.6863 33.3137 8 30 8H10Z" fill="url(#paint0_linear)"/>
  <path d="M14 16C14 14.8954 14.8954 14 16 14H24C25.1046 14 26 14.8954 26 16V24C26 25.1046 25.1046 26 24 26H16C14.8954 26 14 25.1046 14 24V16Z" fill="white"/>
  <path d="M46.64 28V12.8H52.256C53.6 12.8 54.752 13.056 55.712 13.568C56.672 14.08 57.408 14.784 57.92 15.68C58.432 16.576 58.688 17.6 58.688 18.752C58.688 19.904 58.432 20.928 57.92 21.824C57.408 22.72 56.672 23.424 55.712 23.936C54.752 24.448 53.6 24.704 52.256 24.704H48.88L50.4 23.168V28H46.64ZM54.928 18.752C54.928 18.048 54.784 17.44 54.496 16.928C54.208 16.416 53.808 16.016 53.296 15.728C52.784 15.44 52.176 15.296 51.472 15.296H48.88L50.4 13.76V23.744L48.88 22.208H51.472C52.176 22.208 52.784 22.064 53.296 21.776C53.808 21.488 54.208 21.088 54.496 20.576C54.784 20.064 54.928 19.456 54.928 18.752Z" fill="#1E293B"/>
  <path d="M60.9579 28V12.8H64.7179V28H60.9579Z" fill="#1E293B"/>
  <path d="M67.5694 28V12.8H71.3294V25.504H78.0494V28H67.5694Z" fill="#1E293B"/>
  <path d="M91.8022 20.4C91.8022 20.432 91.7702 20.752 91.7062 21.36H82.0662C82.2262 22.128 82.6022 22.736 83.1942 23.184C83.7862 23.632 84.5062 23.856 85.3542 23.856C85.9462 23.856 86.4582 23.76 86.8902 23.568C87.3382 23.36 87.7382 23.056 88.0902 22.656L90.1062 24.672C89.0422 26.064 87.4342 26.76 85.2822 26.76C83.9382 26.76 82.7462 26.496 81.7062 25.968C80.6662 25.424 79.8582 24.672 79.2822 23.712C78.7062 22.752 78.4182 21.664 78.4182 20.448C78.4182 19.248 78.6982 18.168 79.2582 17.208C79.8342 16.232 80.6102 15.48 81.5862 14.952C82.5782 14.408 83.6742 14.136 84.8742 14.136C86.0422 14.136 87.1062 14.4 88.0662 14.928C89.0262 15.456 89.7862 16.2 90.3462 17.16C90.9222 18.104 91.2102 19.184 91.8022 20.4ZM84.9222 16.896C84.1702 16.896 83.5302 17.12 83.0022 17.568C82.4742 18.016 82.1542 18.632 82.0422 19.416H87.7782C87.6662 18.648 87.3462 18.04 86.8182 17.592C86.2902 17.128 85.6582 16.896 84.9222 16.896Z" fill="#1E293B"/>
  <path d="M104.503 14.136C106.039 14.136 107.247 14.592 108.127 15.504C109.023 16.4 109.471 17.712 109.471 19.44V28H105.711V20.064C105.711 19.12 105.503 18.408 105.087 17.928C104.671 17.432 104.071 17.184 103.287 17.184C102.407 17.184 101.703 17.464 101.175 18.024C100.647 18.568 100.383 19.352 100.383 20.376V28H96.6232V14.4H100.215V16.08C100.695 15.488 101.295 15.032 102.015 14.712C102.751 14.328 103.575 14.136 104.503 14.136Z" fill="#1E293B"/>
  <path d="M121.274 14.136C122.81 14.136 124.018 14.592 124.898 15.504C125.794 16.4 126.242 17.712 126.242 19.44V28H122.482V20.064C122.482 19.12 122.274 18.408 121.858 17.928C121.442 17.432 120.842 17.184 120.058 17.184C119.178 17.184 118.474 17.464 117.946 18.024C117.418 18.568 117.154 19.352 117.154 20.376V28H113.394V9.2H117.154V16.08C117.634 15.488 118.234 15.032 118.954 14.712C119.69 14.328 120.458 14.136 121.274 14.136Z" fill="#1E293B"/>
  <path d="M129.001 28V14.4H132.761V28H129.001ZM130.881 12.68C130.177 12.68 129.593 12.464 129.129 12.032C128.665 11.6 128.433 11.072 128.433 10.448C128.433 9.824 128.665 9.296 129.129 8.864C129.593 8.432 130.177 8.216 130.881 8.216C131.585 8.216 132.169 8.424 132.633 8.84C133.097 9.24 133.329 9.752 133.329 10.376C133.329 11.032 133.097 11.584 132.633 12.032C132.185 12.464 131.601 12.68 130.881 12.68Z" fill="#1E293B"/>
  <path d="M144.396 14.136C145.932 14.136 147.14 14.592 148.02 15.504C148.916 16.4 149.364 17.712 149.364 19.44V28H145.604V20.064C145.604 19.12 145.396 18.408 144.98 17.928C144.564 17.432 143.964 17.184 143.18 17.184C142.3 17.184 141.596 17.464 141.068 18.024C140.54 18.568 140.276 19.352 140.276 20.376V28H136.516V14.4H140.108V16.08C140.588 15.488 141.188 15.032 141.908 14.712C142.644 14.328 143.468 14.136 144.396 14.136Z" fill="#1E293B"/>
  <path d="M159.304 26.76C158.152 26.76 157.112 26.496 156.184 25.968C155.272 25.44 154.552 24.688 154.024 23.712C153.496 22.736 153.232 21.648 153.232 20.448C153.232 19.248 153.496 18.168 154.024 17.208C154.552 16.232 155.272 15.48 156.184 14.952C157.112 14.408 158.152 14.136 159.304 14.136C160.456 14.136 161.488 14.408 162.4 14.952C163.328 15.48 164.048 16.232 164.56 17.208C165.088 18.168 165.352 19.248 165.352 20.448C165.352 21.648 165.088 22.736 164.56 23.712C164.048 24.688 163.328 25.44 162.4 25.968C161.488 26.496 160.456 26.76 159.304 26.76ZM159.304 23.712C160.152 23.712 160.848 23.424 161.392 22.848C161.952 22.256 162.232 21.456 162.232 20.448C162.232 19.44 161.952 18.648 161.392 18.072C160.848 17.48 160.152 17.184 159.304 17.184C158.456 17.184 157.752 17.48 157.192 18.072C156.648 18.648 156.376 19.44 156.376 20.448C156.376 21.456 156.648 22.256 157.192 22.848C157.752 23.424 158.456 23.712 159.304 23.712Z" fill="#1E293B"/>
  <defs>
    <linearGradient id="paint0_linear" x1="4" y1="8" x2="36" y2="32" gradientUnits="userSpaceOnUse">
      <stop stop-color="#3B82F6"/>
      <stop offset="1" stop-color="#8B5CF6"/>
    </linearGradient>
  </defs>
</svg>
